<svg width="56" height="56" viewBox="0 0 56 56" fill="none" xmlns="http://www.w3.org/2000/svg">
<path d="M46.668 16.3335H9.33464C6.75731 16.3335 4.66797 18.4228 4.66797 21.0002V44.3335C4.66797 46.9108 6.75731 49.0002 9.33464 49.0002H46.668C49.2453 49.0002 51.3346 46.9108 51.3346 44.3335V21.0002C51.3346 18.4228 49.2453 16.3335 46.668 16.3335Z" stroke="white" stroke-width="4" stroke-linecap="round" stroke-linejoin="round"/>
<path d="M37.3346 49V11.6667C37.3346 10.429 36.843 9.242 35.9678 8.36683C35.0926 7.49167 33.9056 7 32.668 7H23.3346C22.097 7 20.91 7.49167 20.0348 8.36683C19.1596 9.242 18.668 10.429 18.668 11.6667V49" stroke="white" stroke-width="4" stroke-linecap="round" stroke-linejoin="round"/>
</svg>
