<svg width="56" height="56" viewBox="0 0 56 56" fill="none" xmlns="http://www.w3.org/2000/svg">
<path d="M32.6654 4.6665L13.9987 4.6665C12.761 4.6665 11.574 5.15817 10.6989 6.03334C9.8237 6.90851 9.33203 8.09549 9.33203 9.33317L9.33203 46.6665C9.33203 47.9042 9.8237 49.0912 10.6989 49.9663C11.574 50.8415 12.761 51.3332 13.9987 51.3332L41.9987 51.3332C43.2364 51.3332 44.4234 50.8415 45.2985 49.9663C46.1737 49.0912 46.6654 47.9042 46.6654 46.6665L46.6654 18.6665L32.6654 4.6665Z" stroke="white" stroke-width="4" stroke-linecap="round" stroke-linejoin="round"/>
<path d="M32.668 4.6665V18.6665H46.668" stroke="white" stroke-width="4" stroke-linecap="round" stroke-linejoin="round"/>
<path d="M37.3346 30.3335L18.668 30.3335" stroke="white" stroke-width="4" stroke-linecap="round" stroke-linejoin="round"/>
<path d="M37.3346 39.6665H18.668" stroke="white" stroke-width="4" stroke-linecap="round" stroke-linejoin="round"/>
<path d="M23.3346 21H21.0013H18.668" stroke="white" stroke-width="4" stroke-linecap="round" stroke-linejoin="round"/>
</svg>
