<svg width="179" height="12" viewBox="0 0 179 12" fill="none" xmlns="http://www.w3.org/2000/svg">
<path d="M0.666667 6C0.666666 8.94552 3.05448 11.3333 6 11.3333C8.94552 11.3333 11.3333 8.94552 11.3333 6C11.3333 3.05448 8.94552 0.666667 6 0.666667C3.05448 0.666666 0.666667 3.05448 0.666667 6ZM167.667 6.00001C167.667 8.94553 170.054 11.3333 173 11.3333C175.946 11.3333 178.333 8.94553 178.333 6.00002C178.333 3.0545 175.946 0.666681 173 0.666681C170.054 0.666681 167.667 3.0545 167.667 6.00001ZM6 7L173 7.00001L173 5.00001L6 5L6 7Z" fill="#FFF"/>
</svg>
