<svg width="97" height="12" viewBox="0 0 97 12" fill="none" xmlns="http://www.w3.org/2000/svg">
<path d="M0.666667 6C0.666666 8.94552 3.05448 11.3333 6 11.3333C8.94552 11.3333 11.3333 8.94552 11.3333 6C11.3333 3.05448 8.94552 0.666667 6 0.666667C3.05448 0.666666 0.666667 3.05448 0.666667 6ZM85.6667 6.00001C85.6667 8.94553 88.0545 11.3333 91 11.3333C93.9455 11.3333 96.3333 8.94553 96.3333 6.00001C96.3333 3.05449 93.9455 0.666674 91 0.666674C88.0545 0.666674 85.6667 3.05449 85.6667 6.00001ZM6 7L91 7.00001L91 5.00001L6 5L6 7Z" fill="white"/>
</svg>
