<svg width="133" height="12" viewBox="0 0 133 12" fill="none" xmlns="http://www.w3.org/2000/svg">
<path d="M0.666667 6C0.666666 8.94552 3.05448 11.3333 6 11.3333C8.94552 11.3333 11.3333 8.94552 11.3333 6C11.3333 3.05448 8.94552 0.666667 6 0.666667C3.05448 0.666666 0.666667 3.05448 0.666667 6ZM121.667 6.00001C121.667 8.94553 124.054 11.3333 127 11.3333C129.946 11.3333 132.333 8.94553 132.333 6.00001C132.333 3.05449 129.946 0.666677 127 0.666677C124.054 0.666677 121.667 3.05449 121.667 6.00001ZM6 7L127 7.00001L127 5.00001L6 5L6 7Z" fill="white"/>
</svg>
