<svg width="275" height="550" viewBox="0 0 275 550" fill="none" xmlns="http://www.w3.org/2000/svg">
<path d="M0 548.179C0 549.185 0.816925 550.001 1.82251 549.994C74.0989 549.516 143.312 520.597 194.454 469.454C246.027 417.882 275 347.935 275 275C275 202.066 246.027 132.118 194.454 80.5457C143.312 29.4029 74.099 0.484417 1.8226 0.00603143C0.816986 -0.000624493 6.10352e-05 0.815221 6.10352e-05 1.82085C6.10352e-05 2.82647 0.816986 3.64106 1.82257 3.64781C73.1331 4.12613 141.419 32.6609 191.879 83.1207C242.769 134.01 271.358 203.031 271.358 275C271.358 346.969 242.769 415.99 191.879 466.879C141.419 517.339 73.1331 545.874 1.82251 546.352C0.816925 546.359 0 547.174 0 548.179Z" fill="#FDDA60"/>
</svg>
